<?xml version="1.0" encoding="utf-8"?>
<!-- Generator: Adobe Illustrator 24.2.3, SVG Export Plug-In . SVG Version: 6.00 Build 0)  -->
<svg version="1.1" id="Camada_1" xmlns="http://www.w3.org/2000/svg" xmlns:xlink="http://www.w3.org/1999/xlink" x="0px" y="0px"
	 viewBox="0 0 432.9 56.7" style="enable-background:new 0 0 432.9 56.7;" xml:space="preserve">
<style type="text/css">
	.st0{fill:#FF8000;}
	.st1{fill-rule:evenodd;clip-rule:evenodd;fill:#FF8000;}
	.st2{fill-rule:evenodd;clip-rule:evenodd;fill:#FFFFFF;}
	.st3{fill:#FFFFFF;stroke:#FFFFFF;stroke-width:0.2191;stroke-miterlimit:10;}
</style>
<g>
	<path class="st0" d="M356.1,19.4c1.7-11,10.4-19,21.5-19c10.4,0,16.1,7.9,14.5,18c-1.6,10.3-10.2,19-18.3,25.5l0.1,0.1
		c2.5-0.1,5.1-0.5,7.6-0.5h6.1l-2,12.7h-37.8l17.5-19.3c4.9-5.5,11.5-12.4,12.6-19.4c0.4-2.1-0.1-4.9-2.6-4.9
		c-3.2,0-4.3,4.4-4.7,6.7l-0.3,2h-14.3L356.1,19.4z"/>
	<path class="st0" d="M396.7,19.4c1.7-11,10.4-19,21.5-19c10.4,0,16.1,7.9,14.5,18c-1.6,10.3-10.2,19-18.3,25.5l0.1,0.1
		c2.5-0.1,5.1-0.5,7.6-0.5h6.1l-2,12.7h-37.8l17.5-19.3c4.9-5.5,11.5-12.4,12.6-19.4c0.4-2.1-0.1-4.9-2.6-4.9
		c-3.2,0-4.3,4.4-4.7,6.7l-0.3,2h-14.3L396.7,19.4z"/>
	<g>
		<path class="st0" d="M37.8,39.9h-8.4L24,56.7h-7.2l5.3-16.8h-7L9.7,56.7H2.2l5.4-16.8H0l1.5-8.6h9l2.4-7.2H5.1l1.5-8.6h9L20.6,0
			h7.2l-5,15.5h7.1l5-15.5h7.5l-5.1,15.5h6.9l-1.5,8.6h-8.2l-2.2,7.2h7L37.8,39.9z M20.1,24.1l-2.2,7.2H25l2.2-7.2H20.1z"/>
	</g>
	<g>
		<g>
			<polygon class="st1" points="104.8,0.5 103,11.6 87.6,11.6 89.4,0.5 			"/>
			<polygon class="st2" points="86.5,22.2 81.2,55.6 96.2,55.6 101.4,22.2 			"/>
			<path class="st2" d="M154.7,22.2c0.2,1.9,0.7,3.4,1.6,4.9c1.5,2.6,3.7,4.8,6.3,7c0.8,0.7,1.6,1.3,2.1,2.1
				c0.6,0.8,0.9,1.8,0.7,3.1c-0.4,2.4-2.9,3.7-5,3.7c-3.8,0-6.9-3.1-8.5-6.1l-2.7,17.2c3.3,1.5,7,2.3,10.8,2.3
				c10.4,0,18.8-8.2,20.5-18.4c0.7-4.2,0.2-7.1-1.2-9.6c-1.2-2.3-3.1-4.1-5.6-6.2H154.7z"/>
			<polygon class="st2" points="186.8,55.6 201.8,55.6 207,22.2 192.2,22.2 			"/>
			<path class="st2" d="M174.4,0.5c-9.3,0-14.9,5.2-17.7,11.1h60.7l1.8-11.1C219.1,0.5,177.8,0.5,174.4,0.5z"/>
			<path class="st2" d="M147.6,11.7C146.2,3,138.5,0.5,128,0.5h-14.4l-1.8,11.1L147.6,11.7z"/>
			<path class="st2" d="M146.7,22.2h-15.1h-6.4h-15L105,55.6h14.9l2.4-14.8c0.4-2.7,0.7-5.4,1.1-8.1l0.2-0.1l4.6,23h16.1l-7.4-23
				C141.9,30.7,145.1,26.8,146.7,22.2z"/>
			<g>
				<polygon class="st2" points="79.7,11.6 81.6,0.5 55.2,0.5 47,55.6 60.9,55.6 62.1,55.6 65.4,34.5 75.5,34.5 77.3,22.2 
					67.4,22.2 69,11.6 				"/>
			</g>
		</g>
		<g>
			<path class="st3" d="M251.9,11.5c-0.9-0.6-3-1.3-5.4-1.3c-3.8,0-6.9,2-9.3,5c-4.1,5.2-6.7,14.2-6.7,20.9c0,6.4,2.3,10.5,7.7,10.5
				c2.8,0,5.5-0.9,6.9-1.6l1.1,8.4c-2.6,1.8-7,3.1-11.9,3.1c-11.6,0-16.9-8.7-16.9-19.6c0-10.3,4.3-22.6,11.9-29.5
				c4.2-3.9,9.7-6.3,15.9-6.3c4.8,0,8.9,1.3,11,3.1L251.9,11.5z"/>
			<path class="st3" d="M289.5,46.8c-4.4,5.9-10.6,9.7-19.1,9.7c-11.4,0-16.8-7.7-16.8-18.9c0-8.8,3.3-19.8,8.4-26.7
				c4.5-5.9,10.8-9.8,19-9.8c11.8,0,16.6,7.9,16.6,18.5C297.7,28.3,294.6,39.8,289.5,46.8z M280,9.5c-3.9,0-6.6,3.4-8.8,8.1
				c-2.5,5.2-5.2,15.8-5.2,21.8c0,4.5,1.4,7.7,5.6,7.7c4,0,6.7-3.4,8.8-8.2c2.4-5.5,4.9-15.9,4.9-21.7C285.4,12.8,284.1,9.5,280,9.5
				z"/>
			<path class="st3" d="M339.9,55.7h-9.3l-11.7-30.2c-1.1-2.8-1.8-5.6-1.8-5.6h-0.2c0,0-0.3,2.9-0.9,5.9l-6.2,29.9h-10.6l11.1-53.8
				h10.8l10.9,27.5c1.1,2.7,1.8,5.2,1.8,5.2h0.2c0,0,0.2-2.6,0.9-5.4l5.6-27.4H351L339.9,55.7z"/>
		</g>
	</g>
</g>
</svg>
